<svg width="136" height="56" viewBox="0 0 136 56" fill="none" xmlns="http://www.w3.org/2000/svg">
<path d="M31.4385 45.644H29.4202C27.19 45.644 25.3837 43.8396 25.3837 41.6095V31.5161C25.3837 29.4978 22.3563 27.4795 22.3563 27.4795C22.3563 27.4795 25.3837 25.4613 25.3837 23.443V13.3516C25.3837 12.2811 25.8089 11.2544 26.5659 10.4974C27.3229 9.74037 28.3496 9.31509 29.4202 9.31509H31.4385" stroke="#0A2E36" stroke-width="3.02741" stroke-linecap="round" stroke-linejoin="round"/>
<path d="M40.1044 48.8763C36.4234 51.0116 32.2446 52.1394 27.9891 52.1459C23.7335 52.1524 19.5514 51.0376 15.8637 48.9135C12.1761 46.7895 9.11328 43.7314 6.98361 40.047C4.85394 36.3627 3.73264 32.1822 3.73264 27.9267C3.73264 23.6711 4.85394 19.4906 6.98361 15.8063C9.11328 12.122 12.1761 9.0638 15.8637 6.93979C19.5514 4.81578 23.7335 3.7009 27.9891 3.70744C32.2446 3.71397 36.4234 4.84168 40.1044 6.97701C40.3153 7.13033 40.5559 7.2377 40.8108 7.29218C41.0658 7.34666 41.3293 7.34704 41.5844 7.29329C41.8394 7.23953 42.0804 7.13285 42.2917 6.98013C42.5029 6.82741 42.6798 6.63206 42.8108 6.4067C42.9418 6.18134 43.0241 5.93099 43.0523 5.67184C43.0805 5.41269 43.054 5.15051 42.9745 4.90224C42.895 4.65398 42.7643 4.42515 42.5908 4.23057C42.4174 4.03599 42.205 3.87997 41.9675 3.77261C37.7201 1.30878 32.8985 0.0075721 27.9882 3.29486e-05C23.0779 -0.00750621 18.2524 1.27889 13.9974 3.72967C9.74249 6.18045 6.20843 9.7091 3.75111 13.9603C1.2938 18.2114 0 23.035 0 27.9453C0 32.8556 1.2938 37.6792 3.75111 41.9303C6.20843 46.1815 9.74249 49.7101 13.9974 52.1609C18.2524 54.6117 23.0779 55.8981 27.9882 55.8906C32.8985 55.883 37.7201 54.5818 41.9675 52.118C42.1809 51.9963 42.3682 51.8335 42.5185 51.6391C42.6689 51.4447 42.7792 51.2225 42.8433 50.9853C42.9074 50.748 42.9239 50.5005 42.8919 50.2568C42.8599 50.0132 42.78 49.7783 42.6568 49.5656C42.5351 49.3522 42.3723 49.1649 42.1779 49.0146C41.9835 48.8642 41.7613 48.7539 41.5241 48.6898C41.2868 48.6257 41.0393 48.6092 40.7956 48.6412C40.552 48.6732 40.3171 48.7531 40.1044 48.8763V48.8763Z" fill="#0A2E36"/>
<path d="M59.648 40.2217L52.5834 30.057H49.6324L58.4258 18.4616H64.8048L56.9354 28.8349V26.7185L66.325 40.2217H59.648ZM45.1611 40.2217V18.4616H50.7055V40.2217H45.1611Z" fill="#0A2E36"/>
<path d="M75.3514 40.4601C73.5629 40.4601 72.1321 40.2415 71.059 39.8044C70.0057 39.3672 69.2407 38.6418 68.7637 37.6284C68.2868 36.6149 68.0483 35.2437 68.0483 33.5148L68.0781 19.4751H73.0859L73.0561 33.6638C73.0561 34.3991 73.2449 34.9655 73.6225 35.3629C74.0199 35.7405 74.5863 35.9293 75.3216 35.9293H77.587V40.4601H75.3514ZM65.6637 27.7022V23.7675H77.587V27.7022H65.6637Z" fill="#0A2E36"/>
<path d="M81.2697 40.2217V23.7675H86.6948V40.2217H81.2697ZM79.1831 27.7022V23.7675H86.6948V27.7022H79.1831Z" fill="#0A2E36"/>
<path d="M90.6831 40.2217V23.7675H94.9755V30.8619H94.737C94.737 29.1529 94.9457 27.7419 95.363 26.6291C95.8002 25.4964 96.4361 24.6518 97.2707 24.0954C98.1054 23.5191 99.1288 23.2309 100.341 23.2309H100.579C101.812 23.2309 102.835 23.5191 103.65 24.0954C104.484 24.6518 105.11 25.4964 105.528 26.6291C105.965 27.7419 106.183 29.1529 106.183 30.8619H104.931C104.931 29.1529 105.14 27.7419 105.557 26.6291C105.995 25.4964 106.631 24.6518 107.465 24.0954C108.3 23.5191 109.323 23.2309 110.535 23.2309H110.774C112.006 23.2309 113.039 23.5191 113.874 24.0954C114.728 24.6518 115.374 25.4964 115.811 26.6291C116.269 27.7419 116.497 29.1529 116.497 30.8619V40.2217H111.072V30.7128C111.072 29.9577 110.863 29.3317 110.446 28.8349C110.049 28.3182 109.472 28.0599 108.717 28.0599C107.962 28.0599 107.366 28.3182 106.929 28.8349C106.511 29.3317 106.303 29.9776 106.303 30.7724V40.2217H100.878V30.7128C100.878 29.9577 100.669 29.3317 100.252 28.8349C99.8541 28.3182 99.2778 28.0599 98.5227 28.0599C97.7675 28.0599 97.1714 28.3182 96.7342 28.8349C96.3169 29.3317 96.1082 29.9776 96.1082 30.7724V40.2217H90.6831Z" fill="#0A2E36"/>
<path d="M127.862 40.8178C126.471 40.8178 125.239 40.5794 124.166 40.1024C123.093 39.6255 122.189 38.9797 121.454 38.1649C120.718 37.3501 120.152 36.436 119.755 35.4225C119.377 34.4091 119.188 33.3658 119.188 32.2927V31.6965C119.188 30.5837 119.377 29.5205 119.755 28.507C120.152 27.4737 120.708 26.5595 121.424 25.7646C122.159 24.9698 123.053 24.3438 124.107 23.8867C125.16 23.4098 126.352 23.1713 127.684 23.1713C129.452 23.1713 130.953 23.5688 132.185 24.3637C133.417 25.1585 134.361 26.2118 135.016 27.5233C135.672 28.815 136 30.226 136 31.7561V33.485H121.454V30.5638H132.87L130.992 31.8753C130.992 30.9414 130.863 30.1564 130.605 29.5205C130.366 28.8647 129.999 28.3679 129.502 28.0301C129.025 27.6922 128.419 27.5233 127.684 27.5233C126.968 27.5233 126.342 27.6922 125.806 28.0301C125.289 28.348 124.892 28.8448 124.613 29.5205C124.335 30.1763 124.196 31.0109 124.196 32.0244C124.196 32.9385 124.325 33.7334 124.584 34.4091C124.842 35.0648 125.239 35.5716 125.776 35.9293C126.312 36.287 127.008 36.4658 127.862 36.4658C128.618 36.4658 129.234 36.3367 129.711 36.0783C130.207 35.82 130.555 35.4722 130.754 35.035H135.702C135.464 36.1479 134.987 37.1415 134.271 38.0159C133.576 38.8902 132.681 39.5758 131.588 40.0726C130.515 40.5694 129.273 40.8178 127.862 40.8178Z" fill="#0A2E36"/>
<path d="M81.2994 21.7107C81.7763 22.2075 82.5116 22.4559 83.5052 22.4559C84.4789 22.4559 85.1943 22.2075 85.6514 21.7107C86.1084 21.1941 86.337 20.5383 86.337 19.7434C86.337 18.9485 86.1084 18.3026 85.6514 17.8058C85.1943 17.2892 84.469 17.0308 83.4754 17.0308C82.5016 17.0308 81.7763 17.2892 81.2994 17.8058C80.8423 18.3026 80.6138 18.9485 80.6138 19.7434C80.6138 20.5383 80.8423 21.1941 81.2994 21.7107Z" fill="#27FB6B"/>
</svg>
